<?xml version="1.0" encoding="utf-8"?>
<!-- Generator: Adobe Illustrator 17.0.0, SVG Export Plug-In . SVG Version: 6.00 Build 0)  -->
<!DOCTYPE svg PUBLIC "-//W3C//DTD SVG 1.1//EN" "http://www.w3.org/Graphics/SVG/1.1/DTD/svg11.dtd">
<svg version="1.1" xmlns="http://www.w3.org/2000/svg" xmlns:xlink="http://www.w3.org/1999/xlink" x="0px" y="0px" width="60px"
	 height="60px" viewBox="0 0 60 60" enable-background="new 0 0 60 60" xml:space="preserve">
<g id="圖層_1">
	<rect opacity="0" fill="#FFFFFF" width="60" height="60"/>
</g>
<g id="圖層_2">
	<g>
		<path fill="#FFFFFF" d="M49.04,16.862c0-1.743-1.412-3.155-3.154-3.155H14.103c-1.742,0-3.155,1.412-3.155,3.155V38.74H49.04
			V16.862z M45.36,35.06H14.629V17.388H45.36V35.06z"/>
		<path fill="#FFFFFF" d="M35.868,30.04c0-0.985,0.385-1.883,1.015-2.561H22.769c-0.933,0-1.689,0.756-1.689,1.69v2.166
			c0,0.935,0.756,1.689,1.689,1.689h14.254c0.1,0,0.196-0.01,0.29-0.027C36.432,32.292,35.868,31.229,35.868,30.04z M22.769,31.475
			c-0.077,0-0.141-0.062-0.141-0.14v-2.166c0-0.079,0.064-0.142,0.141-0.142h11.648c-0.051,0.263-0.082,0.533-0.092,0.802H23.355
			v0.782h11c0.031,0.294,0.085,0.584,0.165,0.864H22.769z"/>
		<path fill="#FFFFFF" d="M22.593,26.911h14.254c0.099,0,0.195-0.01,0.29-0.025c-0.883-0.705-1.446-1.77-1.446-2.961
			c0-0.982,0.384-1.879,1.015-2.56H22.593c-0.932,0-1.689,0.756-1.689,1.69v2.167C20.904,26.155,21.661,26.911,22.593,26.911z
			 M22.453,23.055c0-0.078,0.064-0.142,0.141-0.142h11.648c-0.051,0.262-0.082,0.533-0.092,0.803h-10.97v0.783h10.998
			c0.033,0.292,0.085,0.581,0.165,0.863H22.593c-0.077,0-0.141-0.061-0.141-0.14V23.055z"/>
		<path fill="#FFFFFF" d="M48.049,40.113H11.952c-1.743,0-3.155,1.121-3.155,2.506v1.168c0,1.385,1.412,2.506,3.155,2.506h36.098
			c1.742,0,3.154-1.121,3.154-2.506v-1.168C51.203,41.234,49.791,40.113,48.049,40.113z M49.1,43.787
			c-0.04,0.1-0.416,0.402-1.051,0.402H11.952c-0.636,0-1.012-0.303-1.055-0.424l0.003-1.146c0.04-0.1,0.416-0.403,1.052-0.403
			h36.098c0.635,0,1.011,0.304,1.054,0.425L49.1,43.787z"/>
	</g>
</g>
</svg>
