<?xml version="1.0" encoding="utf-8"?>
<!-- Generator: Adobe Illustrator 17.0.0, SVG Export Plug-In . SVG Version: 6.00 Build 0)  -->
<!DOCTYPE svg PUBLIC "-//W3C//DTD SVG 1.1//EN" "http://www.w3.org/Graphics/SVG/1.1/DTD/svg11.dtd">
<svg version="1.1" xmlns="http://www.w3.org/2000/svg" xmlns:xlink="http://www.w3.org/1999/xlink" x="0px" y="0px" width="60px"
	 height="60px" viewBox="0 0 60 60" enable-background="new 0 0 60 60" xml:space="preserve">
<g id="圖層_1">
	<rect opacity="0" fill="#FFFFFF" width="60" height="60"/>
</g>
<g id="圖層_2">
	<g>
		<g>
			<path fill="#FFFFFF" d="M49.48,15.182H10.52c-0.899,0-1.627,0.727-1.627,1.625v14.691c0.129-0.021,0.307-0.098,0.44-0.173
				l1.592-1.499V17.215h38.15v23.968h-1.581v-5.322h-0.051c-0.244-1.327-1.376-2.473-2.992-3.169l-2.875,4.83l-0.353-2.169
				c0.235-0.146,0.393-0.404,0.393-0.702c0-0.457-0.369-0.825-0.825-0.825c-0.455,0-0.824,0.368-0.824,0.825
				c0,0.298,0.157,0.557,0.392,0.702l-0.346,2.133l-2.854-4.794c-1.616,0.696-2.749,1.842-2.992,3.169h-0.051v5.322h-20.75
				c-0.375,1.419-1.011,2.71-1.545,3.635h37.66c0.9,0,1.627-0.729,1.627-1.627V16.807C51.107,15.909,50.38,15.182,49.48,15.182z"/>
			<path fill="#FFFFFF" d="M36.727,28.274c0,0.564,0.351,1.026,0.792,1.053c0.308,1.94,1.64,3.397,3.237,3.397
				c1.597,0,2.93-1.459,3.237-3.397c0.018,0,0.036,0.002,0.054,0.002c0.462,0,0.836-0.472,0.836-1.055
				c0-0.516-0.293-0.944-0.681-1.035l0,0c0,0,0.894-3.018-0.981-3.874c-0.228-2.6-4.8-0.561-4.8-0.561
				c-2.349,1.223-1.217,4.518-1.217,4.518l0.001-0.001C36.922,27.49,36.727,27.852,36.727,28.274z M37.562,27.447
				c0.008,0,0.016,0,0.024,0l0.068,0.004v-0.245l0.245-1.404c0.153-0.234,0.298-0.38,0.298-0.38
				c2.079,0.089,3.704-0.941,3.704-0.941c1.398-1.076,1.833,3.018,1.833,3.018l0.045-0.008l0.184-0.035
				c0.029-0.006,0.058-0.008,0.086-0.008c0.153,0,0.3,0.077,0.415,0.223c0.126,0.158,0.196,0.374,0.196,0.604
				c0,0.232-0.07,0.447-0.196,0.606c-0.114,0.144-0.261,0.223-0.415,0.223c-0.01,0-0.021,0-0.036-0.002l-0.208-0.017l-0.033,0.207
				c-0.143,0.902-0.525,1.722-1.076,2.307c-0.27,0.287-0.572,0.512-0.897,0.662c-0.333,0.159-0.683,0.238-1.04,0.238
				c-0.357,0-0.707-0.079-1.04-0.238c-0.326-0.15-0.628-0.375-0.898-0.662c-0.551-0.585-0.933-1.402-1.077-2.305l-0.028-0.179
				l-0.181-0.012c-0.32-0.021-0.581-0.391-0.581-0.828c0-0.23,0.069-0.446,0.196-0.604C37.263,27.524,37.409,27.447,37.562,27.447z"
				/>
			<rect x="14.833" y="27.021" fill="#FFFFFF" width="15.167" height="1.307"/>
			<rect x="14.833" y="23.044" fill="#FFFFFF" width="15.167" height="1.307"/>
			<rect x="14.833" y="31.232" fill="#FFFFFF" width="15.167" height="1.306"/>
			<rect x="14.833" y="35.672" fill="#FFFFFF" width="15.167" height="1.308"/>
		</g>
		<g>
			<path fill="#FFFFFF" d="M10.52,15.182h2.796l-2.39,2.033v23.968h6.615l-4.71,3.635H10.52c-0.899,0-1.627-0.729-1.627-1.627
				V16.807C8.893,15.909,9.62,15.182,10.52,15.182z"/>
		</g>
	</g>
</g>
</svg>
