<?xml version="1.0" encoding="utf-8"?>
<!-- Generator: Adobe Illustrator 17.0.0, SVG Export Plug-In . SVG Version: 6.00 Build 0)  -->
<!DOCTYPE svg PUBLIC "-//W3C//DTD SVG 1.1//EN" "http://www.w3.org/Graphics/SVG/1.1/DTD/svg11.dtd">
<svg version="1.1" xmlns="http://www.w3.org/2000/svg" xmlns:xlink="http://www.w3.org/1999/xlink" x="0px" y="0px" width="60px"
	 height="60px" viewBox="0 0 60 60" enable-background="new 0 0 60 60" xml:space="preserve">
<g id="圖層_2">
	<g id="圖層_1_1_" opacity="0">
		<rect fill="#FFFFFF" fill-opacity="0" width="60" height="60"/>
	</g>
	<rect opacity="0" fill="#FFFFFF" width="60" height="60"/>
</g>
<g id="圖層_1">
	<g>
		<path fill="#FFFFFF" d="M18.263,20.577c0.812,0,1.47-0.66,1.47-1.47v-5.341c0-0.815-0.657-1.472-1.47-1.472
			c-0.813,0-1.472,0.656-1.472,1.472v5.341C16.791,19.917,17.45,20.577,18.263,20.577z M18.263,18.163
			c0.405,0,0.736,0.342,0.736,0.76c0,0.418-0.331,0.757-0.736,0.757c-0.406,0-0.736-0.339-0.736-0.757
			C17.526,18.504,17.856,18.163,18.263,18.163z"/>
		<path fill="#FFFFFF" d="M24.314,20.577c0.812,0,1.473-0.66,1.473-1.47v-5.341c0-0.815-0.661-1.472-1.473-1.472
			c-0.812,0-1.473,0.656-1.473,1.472v5.341C22.842,19.917,23.502,20.577,24.314,20.577z M24.314,18.163
			c0.405,0,0.735,0.342,0.735,0.76c0,0.418-0.33,0.757-0.735,0.757c-0.406,0-0.735-0.339-0.735-0.757
			C23.579,18.504,23.908,18.163,24.314,18.163z"/>
		<path fill="#FFFFFF" d="M32.985,20.626c0.814,0,1.473-0.658,1.473-1.472v-5.339c0-0.814-0.658-1.471-1.473-1.471
			c-0.812,0-1.47,0.657-1.47,1.471v5.339C31.516,19.967,32.174,20.626,32.985,20.626z M32.985,18.163
			c0.405,0,0.737,0.342,0.737,0.76c0,0.418-0.332,0.757-0.737,0.757c-0.405,0-0.734-0.339-0.734-0.757
			C32.251,18.504,32.58,18.163,32.985,18.163z"/>
		<path fill="#FFFFFF" d="M39.037,20.626c0.814,0,1.473-0.658,1.473-1.472v-5.339c0-0.814-0.658-1.471-1.473-1.471
			c-0.812,0-1.47,0.657-1.47,1.471v5.339C37.567,19.967,38.225,20.626,39.037,20.626z M39.037,18.163
			c0.407,0,0.736,0.342,0.736,0.76c0,0.418-0.329,0.757-0.736,0.757c-0.405,0-0.733-0.339-0.733-0.757
			C38.304,18.504,38.632,18.163,39.037,18.163z"/>
		<g>
			<path fill="#FFFFFF" d="M36.976,26.702c-5.759,0-10.429,4.703-10.429,10.503c0,5.798,4.67,10.501,10.429,10.501
				c5.759,0,10.429-4.703,10.429-10.501C47.405,31.405,42.735,26.702,36.976,26.702z M36.976,45.201
				c-4.371,0-7.924-3.585-7.924-7.997c0-4.41,3.553-7.997,7.924-7.997c4.368,0,7.925,3.587,7.925,7.997
				C44.901,41.616,41.344,45.201,36.976,45.201z"/>
			<path fill="#FFFFFF" d="M37.474,35.551v-1.463c0-0.274-0.224-0.498-0.498-0.498c-0.276,0-0.497,0.224-0.497,0.498v1.463
				c-0.569,0.187-1.006,0.685-1.126,1.301l-4.135,0.41c-0.207,0.021-0.358,0.206-0.338,0.414c0.022,0.204,0.208,0.355,0.412,0.334
				l4.073-0.403c0.174,0.761,0.829,1.334,1.612,1.334c0.915,0,1.659-0.781,1.659-1.736C38.635,36.429,38.147,35.773,37.474,35.551z"
				/>
			
				<ellipse transform="matrix(0.708 0.7062 -0.7062 0.708 35.3909 -10.2651)" fill="#FFFFFF" cx="30.108" cy="37.663" rx="0.531" ry="0.575"/>
			
				<ellipse transform="matrix(-0.708 -0.7062 0.7062 -0.708 41.5321 78.6348)" fill="#FFFFFF" cx="37.023" cy="30.731" rx="0.531" ry="0.574"/>
			
				<ellipse transform="matrix(-0.708 -0.7062 0.7062 -0.708 48.1248 94.4677)" fill="#FFFFFF" cx="43.593" cy="37.284" rx="0.531" ry="0.574"/>
			<path fill="#FFFFFF" d="M36.336,43.875c-0.222,0.223-0.235,0.572-0.029,0.778c0.207,0.207,0.558,0.195,0.78-0.028
				c0.223-0.223,0.236-0.576,0.029-0.783C36.91,43.636,36.559,43.652,36.336,43.875z"/>
		</g>
		<path fill="#FFFFFF" d="M26.349,43.5H14.5v-20h26v2.713c1,0.215,2,0.504,2,0.852v-9.028c0-0.937,0.892-1.537-0.045-1.537H39.5
			v2.654c0,1.046-0.958,1.896-2.001,1.896S35.5,20.2,35.5,19.154V16.5h-2v2.654c0,1.046-0.957,1.896-2.001,1.896
			c-1.044,0-1.999-0.85-1.999-1.896V16.5h-5v2.607c0,1.045-0.456,1.892-1.5,1.892c-1.045,0-1.5-0.847-1.5-1.892V16.5h-3v2.607
			c0,1.045-0.456,1.892-1.5,1.892c-1.047,0-1.5-0.847-1.5-1.892V16.5h-0.387c-0.934,0-2.613,0.6-2.613,1.537V43.45
			c0,0.935,1.68,2.05,2.613,2.05h12.295C26.987,45.5,26.633,44.5,26.349,43.5z"/>
	</g>
</g>
</svg>
