<?xml version="1.0" encoding="utf-8"?>
<!-- Generator: Adobe Illustrator 17.0.0, SVG Export Plug-In . SVG Version: 6.00 Build 0)  -->
<!DOCTYPE svg PUBLIC "-//W3C//DTD SVG 1.1//EN" "http://www.w3.org/Graphics/SVG/1.1/DTD/svg11.dtd">
<svg version="1.1" xmlns="http://www.w3.org/2000/svg" xmlns:xlink="http://www.w3.org/1999/xlink" x="0px" y="0px" width="60px"
	 height="60px" viewBox="0 0 60 60" enable-background="new 0 0 60 60" xml:space="preserve">
<g id="圖層_1">
	<rect opacity="0" fill="#FFFFFF" width="60" height="60"/>
</g>
<g id="圖層_2">
	<g>
		<g>
			<path fill="#FFFFFF" d="M40.668,16.307H19.334c-4.051,0-7.334,3.282-7.334,7.332v7.66c0,0.25,0.098,9.953,0.098,9.953
				c0.02,2.977,2.784,3.271,6.174,0.658l4.256-3.278h18.139c4.05,0,7.332-3.281,7.332-7.333v-7.66
				C48,19.589,44.717,16.307,40.668,16.307z M44.506,31.299c0,2.117-1.723,3.839-3.838,3.839H21.338l-5.198,4.004
				c-0.201,0.158-0.39,0.29-0.564,0.404c-0.037-3.663-0.08-8.018-0.081-8.253v-7.655c0-2.118,1.722-3.839,3.84-3.839h21.334
				c2.116,0,3.838,1.721,3.838,3.839V31.299z"/>
			<g>
				<rect x="19.326" y="21.646" fill="#FFFFFF" width="21.348" height="2.236"/>
			</g>
			<g>
				<rect x="19.326" y="26.441" fill="#FFFFFF" width="21.348" height="2.239"/>
			</g>
			<rect x="19.326" y="31.004" fill="#FFFFFF" width="21.348" height="2.237"/>
		</g>
	</g>
</g>
</svg>
