<?xml version="1.0" encoding="utf-8"?>
<!-- Generator: Adobe Illustrator 17.0.0, SVG Export Plug-In . SVG Version: 6.00 Build 0)  -->
<!DOCTYPE svg PUBLIC "-//W3C//DTD SVG 1.1//EN" "http://www.w3.org/Graphics/SVG/1.1/DTD/svg11.dtd">
<svg version="1.1" xmlns="http://www.w3.org/2000/svg" xmlns:xlink="http://www.w3.org/1999/xlink" x="0px" y="0px" width="60px"
	 height="60px" viewBox="0 0 60 60" enable-background="new 0 0 60 60" xml:space="preserve">
<g id="圖層_2">
	<g id="圖層_1_1_" opacity="0">
		<rect fill="#FFFFFF" fill-opacity="0" width="60" height="60"/>
	</g>
	<rect opacity="0" fill="#FFFFFF" width="60" height="60"/>
</g>
<g id="圖層_1">
	<g>
		<path fill="#FFFFFF" d="M43.67,17.624h-1.522v2.812c0,1.046-0.852,1.896-1.896,1.896c-1.044,0-1.892-0.85-1.892-1.896v-2.812
			h-2.264v2.812c0,1.046-0.851,1.896-1.896,1.896c-1.044,0-1.893-0.85-1.893-1.896v-2.812h-4.885v2.765
			c0,1.045-0.85,1.892-1.893,1.892c-1.045,0-1.895-0.847-1.895-1.892v-2.765h-2.263v2.765c0,1.045-0.851,1.892-1.895,1.892
			c-1.047,0-1.895-0.847-1.895-1.892v-2.765h-1.255c-0.934,0-1.694,0.758-1.694,1.694v25.413c0,0.935,0.761,1.693,1.694,1.693H43.67
			c0.937,0,1.695-0.759,1.695-1.693V19.318C45.366,18.381,44.607,17.624,43.67,17.624z M43.388,44.448H16.611V24.61h26.777V44.448z"
			/>
		<path fill="#FFFFFF" d="M19.478,21.858c0.812,0,1.47-0.66,1.47-1.47v-5.341c0-0.815-0.657-1.472-1.47-1.472
			c-0.813,0-1.472,0.656-1.472,1.472v5.341C18.006,21.198,18.666,21.858,19.478,21.858z M19.478,19.444
			c0.405,0,0.736,0.342,0.736,0.76c0,0.418-0.331,0.757-0.736,0.757c-0.406,0-0.736-0.339-0.736-0.757
			C18.742,19.786,19.072,19.444,19.478,19.444z"/>
		<path fill="#FFFFFF" d="M25.53,21.858c0.812,0,1.473-0.66,1.473-1.47v-5.341c0-0.815-0.661-1.472-1.473-1.472
			c-0.812,0-1.473,0.656-1.473,1.472v5.341C24.057,21.198,24.717,21.858,25.53,21.858z M25.53,19.444
			c0.405,0,0.735,0.342,0.735,0.76c0,0.418-0.33,0.757-0.735,0.757c-0.406,0-0.735-0.339-0.735-0.757
			C24.794,19.786,25.124,19.444,25.53,19.444z"/>
		<path fill="#FFFFFF" d="M34.201,21.907c0.814,0,1.473-0.658,1.473-1.472v-5.339c0-0.814-0.658-1.471-1.473-1.471
			c-0.812,0-1.47,0.657-1.47,1.471v5.339C32.731,21.249,33.389,21.907,34.201,21.907z M34.201,19.444
			c0.405,0,0.737,0.342,0.737,0.76c0,0.418-0.332,0.757-0.737,0.757c-0.405,0-0.734-0.339-0.734-0.757
			C33.466,19.786,33.795,19.444,34.201,19.444z"/>
		<path fill="#FFFFFF" d="M40.252,21.907c0.814,0,1.473-0.658,1.473-1.472v-5.339c0-0.814-0.658-1.471-1.473-1.471
			c-0.812,0-1.47,0.657-1.47,1.471v5.339C38.783,21.249,39.441,21.907,40.252,21.907z M40.252,19.444
			c0.407,0,0.736,0.342,0.736,0.76c0,0.418-0.329,0.757-0.736,0.757c-0.405,0-0.733-0.339-0.733-0.757
			C39.519,19.786,39.847,19.444,40.252,19.444z"/>
	</g>
	<g>
		<rect x="23.376" y="28.056" fill="#FFFFFF" width="2.824" height="10.071"/>
		<rect x="19.431" y="31.735" fill="#FFFFFF" width="10.714" height="2.713"/>
	</g>
</g>
</svg>
