<?xml version="1.0" encoding="utf-8"?>
<!-- Generator: Adobe Illustrator 17.0.0, SVG Export Plug-In . SVG Version: 6.00 Build 0)  -->
<!DOCTYPE svg PUBLIC "-//W3C//DTD SVG 1.1//EN" "http://www.w3.org/Graphics/SVG/1.1/DTD/svg11.dtd">
<svg version="1.1" xmlns="http://www.w3.org/2000/svg" xmlns:xlink="http://www.w3.org/1999/xlink" x="0px" y="0px" width="60px"
	 height="60px" viewBox="0 0 60 60" enable-background="new 0 0 60 60" xml:space="preserve">
<g id="圖層_1">
	<rect opacity="0" fill="#FFFFFF" width="60" height="60"/>
</g>
<g id="圖層_2">
	<g>
		<path fill="#FFFFFF" d="M47.01,42.78l-8.441-8.971c3.629-5.311,3.368-12.596-1.068-17.654c-5.257-5.996-14.379-6.592-20.371-1.336
			c-5.995,5.26-6.594,14.378-1.337,20.373c4.58,5.223,12.091,6.345,17.913,3.072l7.703,9.43c1.141,1.302,3.125,1.433,4.428,0.291
			l0.885-0.775C48.024,46.068,48.153,44.085,47.01,42.78z M18.061,33.202c-4.149-4.732-3.676-11.961,1.058-16.113
			c4.733-4.15,11.96-3.676,16.11,1.061c4.15,4.731,3.679,11.959-1.055,16.105C29.441,38.407,22.213,37.932,18.061,33.202z"/>
		<path fill="#FFFFFF" d="M34.152,31.237c-0.256-1.189-0.259-2.322-1.484-2.867c-0.92-0.414-1.964-1.166-2.993-1.246
			c-0.665-0.051-0.768-0.868-0.768-0.868l-0.562-0.257l-0.154-0.715l-0.409-0.102l0.409-0.927l0.308-1.226c0,0,0.306,0.204,0.46,0
			c0.154-0.206,0.41-2.153-0.154-1.946c0,0,1.281-3.073-2.611-3.74c0,0-3.122,0.564-2.817,3.025l0.206,0.868c0,0-0.511-0.36-0.666,0
			c-0.152,0.36,0.309,1.946,0.309,1.946s0.41,0.411,0.613,0l0.357,1.486c0,0,0.41,0.67,0.566,0.615
			c0.152-0.053-0.514,0.818-0.514,0.818l-0.613,0.256l-0.749,0.869c0,0-2.888,0.718-3.349,1.844
			c-0.141,0.346-0.333,1.848-0.532,3.762c1.951,2.104,4.696,3.309,7.587,3.309c2.508,0,4.928-0.908,6.809-2.561
			c0.336-0.295,0.646-0.608,0.936-0.937C34.243,31.875,34.176,31.353,34.152,31.237z"/>
	</g>
</g>
</svg>
