<?xml version="1.0" encoding="utf-8"?>
<!-- Generator: Adobe Illustrator 17.0.0, SVG Export Plug-In . SVG Version: 6.00 Build 0)  -->
<!DOCTYPE svg PUBLIC "-//W3C//DTD SVG 1.1//EN" "http://www.w3.org/Graphics/SVG/1.1/DTD/svg11.dtd">
<svg version="1.1" xmlns="http://www.w3.org/2000/svg" xmlns:xlink="http://www.w3.org/1999/xlink" x="0px" y="0px" width="60px"
	 height="60px" viewBox="0 0 60 60" enable-background="new 0 0 60 60" xml:space="preserve">
<g id="圖層_1">
	<rect opacity="0" fill="#FFFFFF" width="60" height="60"/>
</g>
<g id="圖層_2">
	<g>
		<path fill="#FFFFFF" d="M35.456,13.947c0-1.249-1.012-2.261-2.26-2.261h-0.692v-0.733c0-0.744-0.603-1.348-1.347-1.348h-6.044
			c-0.745,0-1.349,0.603-1.349,1.348v0.733h-0.692c-1.248,0-2.259,1.012-2.259,2.261v2.28h14.643V13.947z M28.133,12.846
			c-0.614,0-1.112-0.464-1.112-1.039c0-0.573,0.498-1.04,1.112-1.04c0.614,0,1.111,0.467,1.111,1.04
			C29.244,12.382,28.747,12.846,28.133,12.846z"/>
		<polygon fill="#FFFFFF" points="28.601,33.687 22.589,33.687 22.589,35.054 29.303,35.054 		"/>
		<rect x="22.589" y="37.944" fill="#FFFFFF" width="11.092" height="1.367"/>
		<polygon fill="#FFFFFF" points="31.787,21.491 22.352,21.491 22.352,22.861 29.954,22.861 		"/>
		<rect x="22.589" y="29.632" fill="#FFFFFF" width="5.188" height="1.371"/>
		<polygon fill="#FFFFFF" points="22.352,26.914 27.902,26.914 28.367,25.546 22.352,25.546 		"/>
		<path fill="#FFFFFF" d="M17.73,43.824v-26.38h1.763v-3.496c0-0.09,0.005-0.179,0.011-0.267h-3.28c-1.248,0-2.26,1.01-2.26,2.257
			v29.395c0,1.245,1.012,2.259,2.26,2.259H37.71l-0.95-3.766H17.73z"/>
		<path fill="#FFFFFF" d="M36.774,17.444h1.764v1.992c1.321,0.069,2.6,0.523,3.765,1.12v-4.619c0-1.247-1.012-2.257-2.261-2.257
			H36.76c0.007,0.088,0.014,0.176,0.014,0.267V17.444z"/>
		<path fill="#FFFFFF" d="M44.352,48.174l-1.956-7.562c-0.107-0.414-0.39-0.732-0.745-0.904l-0.643-2.476
			c3.738-1.737,5.82-5.959,4.744-10.112c-1.212-4.679-5.971-7.49-10.629-6.284c-4.658,1.207-7.453,5.977-6.239,10.654
			c1.039,3.999,4.666,6.635,8.607,6.559l0.647,2.483c-0.291,0.334-0.416,0.802-0.296,1.259l1.96,7.56
			c0.191,0.744,0.948,1.191,1.691,0.999l1.866-0.484C44.101,49.672,44.546,48.915,44.352,48.174z M38.815,35.084
			c-3.105,0.805-6.307-1.132-7.129-4.319c-0.826-3.189,1.027-6.434,4.136-7.242c3.107-0.806,6.305,1.132,7.131,4.321
			C43.776,31.032,41.923,34.281,38.815,35.084z"/>
	</g>
</g>
</svg>
