<?xml version="1.0" encoding="utf-8"?>
<!-- Generator: Adobe Illustrator 17.0.0, SVG Export Plug-In . SVG Version: 6.00 Build 0)  -->
<!DOCTYPE svg PUBLIC "-//W3C//DTD SVG 1.1//EN" "http://www.w3.org/Graphics/SVG/1.1/DTD/svg11.dtd">
<svg version="1.1" xmlns="http://www.w3.org/2000/svg" xmlns:xlink="http://www.w3.org/1999/xlink" x="0px" y="0px" width="60px"
	 height="60px" viewBox="0 0 60 60" enable-background="new 0 0 60 60" xml:space="preserve">
<g id="圖層_1">
	<rect opacity="0" fill="#FFFFFF" width="60" height="60"/>
</g>
<g id="圖層_2">
	<g>
		<path fill="#FFFFFF" d="M27.148,37.894c3.009,0,5.443-2.398,5.443-5.356c0-2.956-2.435-5.353-5.443-5.353
			c-3.009,0-5.445,2.396-5.445,5.353C21.703,35.496,24.139,37.894,27.148,37.894z M26.851,32.926
			c-0.867-0.289-1.457-0.695-1.457-1.478c0-0.72,0.499-1.277,1.366-1.438v-0.767h0.792v0.711c0.533,0.014,0.897,0.138,1.18,0.267
			l-0.242,0.913c-0.202-0.097-0.58-0.282-1.164-0.282c-0.525,0-0.697,0.232-0.697,0.462c0,0.257,0.283,0.433,0.978,0.686
			c0.964,0.337,1.342,0.782,1.342,1.518c0,0.721-0.499,1.333-1.431,1.487v0.832H26.72v-0.767c-0.544-0.025-1.069-0.178-1.374-0.346
			l0.24-0.945c0.341,0.186,0.816,0.356,1.346,0.356c0.469,0,0.781-0.188,0.781-0.503C27.713,33.324,27.456,33.127,26.851,32.926z"/>
		<path fill="#FFFFFF" d="M9.415,43.429H44.8v-21.51H9.415V43.429z M41.367,25.353v14.641H29.902
			c3.029-1.127,5.186-4.007,5.186-7.381c0-3.257-2.013-6.056-4.878-7.26H41.367z M33.786,32.613c0,3.637-3.018,6.589-6.725,6.589
			c-3.703,0-6.718-2.952-6.718-6.589c0-3.631,3.015-6.587,6.718-6.587C30.767,26.026,33.786,28.982,33.786,32.613z M12.848,25.353
			h11.069c-2.865,1.204-4.878,4.003-4.878,7.26c0,3.374,2.154,6.254,5.185,7.381H12.848V25.353z"/>
		<polygon fill="#FFFFFF" points="15.197,16.571 15.197,20.256 17.595,20.256 17.595,18.972 48.184,18.972 48.184,35.68 
			45.871,35.68 45.871,38.081 50.584,38.081 50.584,16.571 		"/>
	</g>
</g>
</svg>
