<?xml version="1.0" encoding="utf-8"?>
<!-- Generator: Adobe Illustrator 17.0.0, SVG Export Plug-In . SVG Version: 6.00 Build 0)  -->
<!DOCTYPE svg PUBLIC "-//W3C//DTD SVG 1.1//EN" "http://www.w3.org/Graphics/SVG/1.1/DTD/svg11.dtd">
<svg version="1.1" xmlns="http://www.w3.org/2000/svg" xmlns:xlink="http://www.w3.org/1999/xlink" x="0px" y="0px" width="60px"
	 height="60px" viewBox="0 0 60 60" enable-background="new 0 0 60 60" xml:space="preserve">
<g id="圖層_1">
	<rect opacity="0" fill="#FFFFFF" width="60" height="60"/>
</g>
<g id="圖層_2">
	<g>
		<g>
			<path fill="#FFFFFF" d="M44.17,17.624h-1.522v2.812c0,1.046-0.852,1.896-1.896,1.896c-1.044,0-1.892-0.85-1.892-1.896v-2.812
				h-2.264v2.812c0,1.046-0.851,1.896-1.896,1.896c-1.044,0-1.893-0.85-1.893-1.896v-2.812h-4.885v2.765
				c0,1.045-0.85,1.892-1.893,1.892c-1.045,0-1.895-0.847-1.895-1.892v-2.765h-2.263v2.765c0,1.045-0.851,1.892-1.895,1.892
				c-1.047,0-1.895-0.847-1.895-1.892v-2.765h-1.255c-0.934,0-1.694,0.758-1.694,1.694v25.413c0,0.935,0.761,1.693,1.694,1.693
				H44.17c0.937,0,1.695-0.759,1.695-1.693V19.318C45.866,18.381,45.107,17.624,44.17,17.624z M43.888,44.448H17.111V24.61h26.777
				V44.448z"/>
			<path fill="#FFFFFF" d="M19.978,21.858c0.812,0,1.47-0.66,1.47-1.47v-5.341c0-0.815-0.657-1.472-1.47-1.472
				c-0.813,0-1.472,0.656-1.472,1.472v5.341C18.506,21.198,19.166,21.858,19.978,21.858z M19.978,19.444
				c0.405,0,0.736,0.342,0.736,0.76c0,0.418-0.331,0.757-0.736,0.757c-0.406,0-0.736-0.339-0.736-0.757
				C19.242,19.786,19.572,19.444,19.978,19.444z"/>
			<path fill="#FFFFFF" d="M26.03,21.858c0.811,0,1.473-0.66,1.473-1.47v-5.341c0-0.815-0.661-1.472-1.473-1.472
				c-0.812,0-1.473,0.656-1.473,1.472v5.341C24.557,21.198,25.217,21.858,26.03,21.858z M26.03,19.444
				c0.405,0,0.735,0.342,0.735,0.76c0,0.418-0.33,0.757-0.735,0.757c-0.406,0-0.735-0.339-0.735-0.757
				C25.294,19.786,25.624,19.444,26.03,19.444z"/>
			<path fill="#FFFFFF" d="M34.701,21.907c0.814,0,1.473-0.658,1.473-1.472v-5.339c0-0.814-0.658-1.471-1.473-1.471
				c-0.812,0-1.47,0.657-1.47,1.471v5.339C33.231,21.249,33.889,21.907,34.701,21.907z M34.701,19.444
				c0.405,0,0.737,0.342,0.737,0.76c0,0.418-0.332,0.757-0.737,0.757c-0.405,0-0.734-0.339-0.734-0.757
				C33.966,19.786,34.295,19.444,34.701,19.444z"/>
			<path fill="#FFFFFF" d="M40.752,21.907c0.815,0,1.473-0.658,1.473-1.472v-5.339c0-0.814-0.658-1.471-1.473-1.471
				c-0.811,0-1.47,0.657-1.47,1.471v5.339C39.283,21.249,39.941,21.907,40.752,21.907z M40.752,19.444
				c0.407,0,0.736,0.342,0.736,0.76c0,0.418-0.329,0.757-0.736,0.757c-0.405,0-0.733-0.339-0.733-0.757
				C40.019,19.786,40.347,19.444,40.752,19.444z"/>
			<rect x="21.384" y="26.664" fill="#FFFFFF" width="3.215" height="3.089"/>
			<rect x="26.618" y="26.664" fill="#FFFFFF" width="3.215" height="3.089"/>
			<rect x="31.733" y="26.664" fill="#FFFFFF" width="3.216" height="3.089"/>
			<rect x="36.962" y="26.664" fill="#FFFFFF" width="3.218" height="3.089"/>
			<g>
				<rect x="21.384" y="31" fill="#FFFFFF" width="3.215" height="3.092"/>
			</g>
			<g>
				<rect x="26.618" y="31" fill="#FFFFFF" width="3.215" height="3.092"/>
			</g>
			<g>
				<rect x="31.733" y="31" fill="#FFFFFF" width="3.216" height="3.092"/>
			</g>
			<g>
				<rect x="36.962" y="31" fill="#FFFFFF" width="3.218" height="3.092"/>
			</g>
			<g>
				<rect x="21.384" y="35.406" fill="#FFFFFF" width="3.215" height="3.089"/>
			</g>
			<g>
				<rect x="26.618" y="35.406" fill="#FFFFFF" width="3.215" height="3.089"/>
			</g>
			<g>
				<rect x="31.733" y="35.406" fill="#FFFFFF" width="3.216" height="3.089"/>
			</g>
			<g>
				<rect x="36.962" y="35.406" fill="#FFFFFF" width="3.218" height="3.089"/>
			</g>
			<rect x="21.384" y="39.745" fill="#FFFFFF" width="3.215" height="3.089"/>
			<rect x="26.618" y="39.745" fill="#FFFFFF" width="3.215" height="3.089"/>
			<g>
				<rect x="31.733" y="39.745" fill="#FFFFFF" width="3.216" height="3.089"/>
			</g>
			<g>
				<rect x="36.962" y="39.745" fill="#FFFFFF" width="3.218" height="3.089"/>
			</g>
		</g>
	</g>
</g>
</svg>
